<?xml version="1.0" standalone="no"?>
<!DOCTYPE svg PUBLIC "-//W3C//DTD SVG 20010904//EN"
 "http://www.w3.org/TR/2001/REC-SVG-20010904/DTD/svg10.dtd">
<svg version="1.0" xmlns="http://www.w3.org/2000/svg"
 width="900.000000pt" height="447.000000pt" viewBox="0 0 900.000000 447.000000"
 preserveAspectRatio="xMidYMid meet">
<metadata>
Created by potrace 1.10, written by Peter Selinger 2001-2011
</metadata>
<g transform="translate(0.000000,447.000000) scale(0.100000,-0.100000)"
fill="#000000" stroke="none">
<path d="M3717 2913 c-4 -7 -11 -301 -8 -338 1 -6 62 -10 163 -10 90 0 204 -2
253 -5 l90 -5 0 173 0 172 -230 3 c-126 2 -237 7 -246 11 -10 4 -19 4 -22 -1z
m331 -149 c27 -19 28 -45 3 -68 -15 -14 -31 -15 -92 -10 -41 4 -80 11 -86 17
-16 12 -17 49 -1 65 18 18 149 16 176 -4z"/>
<path d="M4558 2889 c-3 -8 -6 -185 -7 -394 -1 -209 -6 -483 -12 -610 -15
-328 -26 -829 -19 -837 3 -4 98 -9 210 -10 l205 -3 7 50 c22 143 37 165 73
100 10 -20 28 -47 39 -59 29 -31 102 -86 114 -86 6 0 23 -6 39 -14 79 -39 227
-56 308 -35 22 6 58 14 80 18 22 5 65 21 95 37 56 30 164 130 181 168 5 11 13
28 18 36 29 49 61 143 72 210 5 30 13 78 18 105 13 65 13 248 1 305 -6 25 -14
65 -19 90 -11 54 -39 131 -52 144 -5 6 -9 16 -9 24 0 29 -105 150 -155 179
-120 69 -184 85 -331 81 -118 -4 -168 -13 -214 -39 -8 -5 -24 -13 -35 -18 -11
-5 -37 -26 -58 -45 -34 -32 -88 -51 -72 -26 16 25 24 136 26 365 l3 250 -200
6 c-109 3 -222 9 -250 14 -39 5 -52 4 -56 -6z m349 -153 l28 -24 5 -204 c6
-229 10 -240 82 -302 38 -33 47 -36 81 -31 20 4 65 20 98 37 176 88 403 65
521 -53 92 -92 127 -191 135 -385 9 -214 -14 -348 -82 -469 -45 -79 -109 -138
-184 -166 -72 -27 -230 -30 -309 -6 -53 16 -162 92 -162 113 0 8 31 10 108 7
83 -4 115 -2 144 10 88 37 173 135 203 233 10 35 15 97 15 214 0 161 -1 166
-29 226 -35 73 -108 149 -176 180 -65 31 -180 33 -241 5 -89 -41 -168 -137
-204 -250 -28 -89 -28 -282 -1 -369 25 -76 42 -104 105 -169 51 -54 55 -75 11
-55 -48 22 -80 14 -135 -30 -103 -85 -108 -88 -175 -88 -67 0 -87 12 -98 60
-6 24 5 636 22 1205 l9 289 26 23 c23 19 38 23 101 23 64 0 78 -3 102 -24z
m445 -725 c50 -21 80 -52 108 -107 17 -33 20 -59 20 -194 0 -190 -14 -244 -80
-301 -47 -41 -101 -53 -191 -42 -44 5 -58 13 -98 53 -62 63 -82 128 -81 270 1
105 13 162 52 235 49 91 169 130 270 86z"/>
<path d="M6266 2861 c-4 -6 -8 -87 -9 -180 l-3 -170 240 -3 c133 -2 248 -2
256 0 13 3 15 31 17 173 1 122 -2 169 -10 169 -141 0 -447 10 -463 15 -12 4
-25 2 -28 -4z m339 -151 c20 -16 19 -44 -2 -61 -23 -19 -174 -19 -197 0 -23
19 -16 53 14 69 31 16 162 11 185 -8z"/>
<path d="M2190 2798 c-14 -6 -157 -15 -320 -20 -183 -5 -304 -13 -318 -20 -12
-6 -33 -30 -46 -52 -13 -23 -35 -53 -48 -66 -13 -14 -35 -41 -48 -60 -13 -19
-27 -37 -30 -40 -15 -12 -342 -453 -371 -500 -20 -33 -37 -50 -48 -48 -14 3
-16 18 -13 113 2 61 -4 210 -12 332 -9 122 -13 235 -10 250 3 16 0 36 -8 46
-11 15 -18 16 -48 6 -19 -6 -143 -14 -275 -18 l-240 -6 1 -25 c1 -14 6 -68 13
-120 6 -52 11 -174 11 -270 0 -96 5 -229 10 -295 6 -66 15 -248 20 -405 18
-526 23 -641 31 -645 4 -3 78 2 165 10 86 8 210 15 275 15 65 0 120 4 124 9 3
6 1 29 -5 53 -6 24 -13 111 -16 193 l-7 150 31 17 c16 10 81 68 144 128 124
121 127 122 163 54 12 -21 34 -59 50 -84 36 -55 51 -79 65 -105 15 -28 29 -50
75 -120 45 -68 60 -91 75 -120 6 -11 19 -33 30 -50 11 -16 24 -39 29 -50 22
-49 23 -50 294 -34 139 7 285 13 325 11 86 -4 92 7 36 72 -47 55 -54 64 -54
71 0 4 -19 32 -42 63 -24 32 -47 65 -53 74 -5 9 -50 76 -100 148 -49 72 -97
142 -105 155 -31 50 -75 110 -82 113 -5 2 -8 8 -8 13 0 5 -19 36 -42 68 -24
33 -59 83 -78 111 -33 48 -56 79 -80 107 -14 17 -13 21 19 51 16 15 131 155
256 312 126 157 248 305 272 330 25 26 43 55 43 68 0 24 -12 26 -50 10z m-252
-169 c3 -18 -43 -90 -117 -181 -216 -265 -264 -340 -263 -403 1 -71 85 -216
297 -515 117 -165 206 -304 211 -328 9 -47 -11 -54 -164 -59 -172 -5 -174 -4
-267 143 -38 60 -97 154 -132 209 -83 131 -122 177 -178 210 l-47 27 -55 -21
c-68 -26 -100 -50 -218 -166 -116 -114 -135 -152 -135 -266 0 -98 -13 -155
-40 -169 -10 -6 -65 -13 -122 -16 -95 -6 -105 -5 -130 15 -33 26 -30 -19 -74
1039 -20 476 -30 446 159 454 149 7 142 19 157 -277 12 -248 19 -281 77 -345
65 -73 90 -75 171 -11 43 34 127 137 363 448 78 104 145 181 166 194 41 26
124 37 253 35 69 -1 85 -4 88 -17z"/>
<path d="M3240 2433 c-129 -30 -217 -93 -260 -188 -15 -32 -26 -45 -38 -43
-14 3 -17 17 -19 87 -1 56 -5 87 -15 95 -9 9 -67 11 -218 7 -198 -6 -205 -7
-202 -26 14 -101 21 -263 22 -486 0 -146 3 -395 7 -553 l6 -288 249 5 c138 3
254 9 259 14 6 6 5 47 -1 109 -16 146 -8 619 10 664 22 53 40 74 90 107 54 37
185 59 279 48 52 -6 60 -5 63 11 1 9 2 108 0 219 l-3 203 -64 16 c-76 19 -81
19 -165 -1z m77 -145 c26 -28 35 -72 25 -118 -9 -40 -33 -55 -124 -76 -32 -8
-76 -23 -98 -34 -60 -30 -143 -118 -176 -185 l-29 -60 -5 -298 -5 -299 -28
-24 c-25 -21 -38 -24 -111 -24 -120 0 -117 -5 -127 227 -4 104 -10 328 -14
498 -7 306 -6 311 15 337 12 16 35 30 55 34 64 12 100 -3 175 -72 46 -41 77
-63 87 -60 8 3 18 6 22 6 5 0 44 28 87 61 86 67 164 109 205 109 14 0 35 -10
46 -22z"/>
<path d="M3713 2408 c-5 -7 -10 -83 -11 -168 -1 -85 -6 -294 -11 -465 -11
-331 -15 -704 -8 -711 2 -3 87 -7 188 -9 101 -2 214 -7 252 -11 l67 -7 0 344
c0 189 5 466 10 614 6 149 12 299 13 335 l2 65 -60 -2 c-80 -3 -396 13 -416
21 -9 4 -20 1 -26 -6z m296 -137 c25 -5 51 -17 58 -27 15 -20 17 -345 4 -778
-8 -299 -2 -286 -135 -286 -76 0 -84 2 -107 26 l-24 26 4 336 c1 186 6 413 10
506 6 160 8 169 30 187 25 21 84 24 160 10z"/>
<path d="M6250 2345 c0 -5 -3 -226 -7 -490 -5 -264 -8 -562 -8 -663 l0 -183
230 -3 c127 -2 239 -6 250 -7 20 -4 20 2 22 246 3 342 21 1036 28 1060 11 43
1 45 -263 48 -169 2 -252 -1 -252 -8z m351 -144 l24 -19 3 -324 c1 -177 -1
-405 -6 -505 -10 -228 -6 -223 -137 -223 -79 0 -94 3 -110 20 -16 18 -17 51
-13 518 5 599 -6 552 127 552 72 0 93 -4 112 -19z"/>
<path d="M7450 2345 c-19 -7 -45 -14 -57 -14 -21 -1 -80 -23 -113 -42 -8 -5
-26 -14 -39 -19 -30 -13 -141 -126 -141 -144 0 -7 -6 -19 -14 -25 -8 -6 -16
-26 -20 -44 -3 -18 -11 -62 -17 -99 -11 -59 -10 -75 6 -130 10 -35 24 -70 32
-79 7 -8 13 -20 13 -26 0 -14 110 -113 125 -113 6 0 16 -5 23 -12 13 -13 71
-36 122 -48 19 -4 49 -13 65 -18 52 -18 128 -35 190 -42 33 -4 73 -13 88 -19
16 -6 41 -11 56 -11 25 0 68 -18 119 -50 17 -11 22 -24 22 -55 -1 -53 -29 -73
-128 -90 -147 -26 -281 27 -299 118 l-9 42 -214 5 c-118 3 -220 9 -226 13 -22
13 -36 -20 -29 -70 20 -144 137 -272 320 -348 59 -25 133 -45 163 -45 17 0 53
-4 79 -10 106 -21 157 -20 393 9 155 20 320 117 376 223 41 76 54 131 54 229
0 96 -8 125 -53 204 -22 38 -123 125 -145 125 -6 0 -23 6 -39 14 -42 21 -93
37 -143 46 -25 5 -58 13 -73 19 -16 6 -46 11 -67 11 -21 0 -51 5 -67 11 -15 6
-57 14 -93 19 -80 10 -132 29 -165 60 -33 31 -32 52 6 89 30 31 31 31 140 31
87 0 115 -4 137 -17 40 -26 50 -38 58 -67 3 -14 10 -29 16 -32 5 -3 77 -8 161
-10 84 -2 183 -9 220 -14 38 -6 73 -7 79 -4 15 10 0 126 -23 171 -28 56 -82
117 -134 152 -25 17 -50 31 -54 31 -5 0 -14 7 -21 15 -7 8 -22 15 -34 15 -11
0 -30 7 -40 15 -11 8 -32 15 -47 15 -14 0 -46 7 -69 15 -57 20 -437 20 -490 0z
m435 -121 c109 -12 218 -56 259 -104 14 -17 26 -38 26 -45 0 -33 -155 -32
-207 2 -15 9 -50 33 -78 53 -66 47 -107 60 -188 60 -87 0 -141 -25 -207 -97
-55 -60 -65 -86 -56 -138 8 -42 92 -133 151 -163 38 -19 232 -62 279 -62 35 0
135 -28 218 -61 176 -70 234 -220 149 -388 -36 -70 -83 -112 -166 -145 -90
-36 -176 -44 -400 -36 -177 6 -208 10 -272 32 -86 31 -150 72 -180 117 -33 49
-18 61 72 61 65 0 76 -3 116 -31 24 -18 62 -49 85 -69 82 -75 237 -101 348
-59 40 15 69 35 106 76 57 62 70 88 70 137 0 52 -82 151 -158 190 -26 13 -119
38 -192 51 -77 14 -179 38 -258 62 -140 42 -221 125 -230 238 -8 101 42 197
131 252 84 51 143 65 307 73 145 7 163 6 275 -6z"/>
</g>
</svg>
